<?xml version="1.0" encoding="UTF-8"?>
<svg id="Calque_2" xmlns="http://www.w3.org/2000/svg" viewBox="0 0 396.97 65.46">
  <defs>
    <style>
      .cls-1 {
        fill: #3653a4;
      }

      .cls-2 {
        fill: #fff;
      }

      .cls-3 {
        fill: #d9281b;
      }
    </style>
  </defs>
  <g id="Calque_2-2" data-name="Calque_2">
    <g id="v1">
      <g id="flag_version_vectorisé">
        <g>
          <path class="cls-1" d="M0,3.27h16.25v25.97h.18c1.27-2.27,2.63-4.54,3.9-6.72L32.13,3.27h20.16l-19.43,26.06,20.16,35.14h-18.98l-12.89-24.79-4.9,6.26v18.52H0V3.27Z"/>
          <path class="cls-1" d="M58.65,4.09c3.72-.64,11.8-1.27,19.34-1.27,8.72,0,13.98.64,18.7,3,4.81,2.18,8.26,6.63,8.26,12.62,0,5.08-2.81,10.08-9.99,12.8v.18c7.44,2.09,11.98,7.63,11.98,14.89,0,5.81-2.81,10.35-6.9,13.35-4.54,3.45-12.17,5.54-25.24,5.54-7.44,0-12.89-.45-16.16-1V4.09h0ZM74.9,26.79h3.27c6.99,0,10.35-2.45,10.35-6.36,0-3.54-2.72-5.81-8.26-5.81-2.72,0-4.27.09-5.36.36v11.8h0ZM74.9,53.03c1.18.18,2.63.18,4.72.18,5.45,0,10.08-2.18,10.08-7.63s-4.72-7.17-10.89-7.17h-3.9v14.62h-.01Z"/>
          <path class="cls-1" d="M185.76,42.58c-.27-6.99-.36-15.16-.36-24.7h-.27c-1.91,8.08-4.45,17.25-6.45,23.97l-6.08,21.33h-12.8l-5.08-21.24c-1.63-6.63-3.45-15.71-4.9-24.06h-.18c-.36,8.62-.64,17.7-.91,24.7l-1,21.88h-15.07l3.81-61.19h22.06l3.99,16.43c1.73,6.81,3.54,14.98,4.81,22.43h.27c1.73-7.45,3.72-16.07,5.54-22.52l4.63-16.34h21.52l3.09,61.19h-15.89l-.73-21.88h0Z"/>
          <path class="cls-1" d="M225.26,47.85c.54,3.54,5.63,5.54,11.44,5.54,4.18,0,8.17-.45,12.17-1.73l2.09,10.99c-5.36,2.09-11.17,2.81-16.71,2.81-15.71,0-24.6-8.72-24.6-22.88,0-10.35,6.72-23.79,23.15-23.79,14.44,0,20.61,10.62,20.61,22.88,0,2.63-.36,5.08-.64,6.17h-27.51ZM238.33,36.77c0-2.54-1.18-7.26-6.36-7.26-4.81,0-6.63,4.45-6.9,7.26h13.26Z"/>
          <path class="cls-1" d="M306.07,0v50.39c0,5.54.18,11.08.36,14.07h-14.53l-.64-5.99h-.18c-2.91,4.99-8.35,6.99-13.53,6.99-10.35,0-18.97-8.99-18.97-22.97-.09-15.07,9.44-23.7,19.97-23.7,4.9,0,8.99,1.45,10.99,4.36h.18V0h16.35ZM289.73,39.13c0-.64,0-1.45-.09-2.09-.63-3.18-3.09-5.72-6.45-5.72-5.54,0-7.99,4.9-7.99,10.71,0,6.9,3.36,10.44,7.9,10.44,3.27,0,5.81-2.36,6.35-5.36.27-.91.27-1.91.27-3v-4.99h.01Z"/>
        </g>
        <g id="flag">
          <rect id="flag-2" class="cls-3" x="332.23" y=".36" width="64.74" height="64.74"/>
          <g id="cross">
            <rect class="cls-2" x="357.27" y="12.66" width="13.55" height="40.13"/>
            <rect class="cls-2" x="343.72" y="26.85" width="40.65" height="12.77"/>
          </g>
        </g>
      </g>
    </g>
  </g>
</svg>